<svg width="92" height="59" viewBox="0 0 92 59" fill="none" xmlns="http://www.w3.org/2000/svg">
<path d="M33.7344 46H28.0801L6.60547 13.1289V46H0.951172V3.34375H6.60547L28.1387 36.3613V3.34375H33.7344V46Z" fill="white"/>
<path d="M48.7637 46H43.3438V14.3008H48.7637V46ZM42.9043 5.89258C42.9043 5.01367 43.168 4.27148 43.6953 3.66602C44.2422 3.06055 45.043 2.75781 46.0977 2.75781C47.1523 2.75781 47.9531 3.06055 48.5 3.66602C49.0469 4.27148 49.3203 5.01367 49.3203 5.89258C49.3203 6.77148 49.0469 7.50391 48.5 8.08984C47.9531 8.67578 47.1523 8.96875 46.0977 8.96875C45.043 8.96875 44.2422 8.67578 43.6953 8.08984C43.168 7.50391 42.9043 6.77148 42.9043 5.89258Z" fill="white"/>
<path d="M60.1309 46V18.4902H55.1211V14.3008H60.1309V11.0488C60.1309 7.65039 61.0391 5.02344 62.8555 3.16797C64.6719 1.3125 67.2402 0.384766 70.5605 0.384766C71.8105 0.384766 73.0508 0.550781 74.2812 0.882812L73.9883 5.27734C73.0703 5.10156 72.0938 5.01367 71.0586 5.01367C69.3008 5.01367 67.9434 5.53125 66.9863 6.56641C66.0293 7.58203 65.5508 9.04688 65.5508 10.9609V14.3008H72.3184V18.4902H65.5508V46H60.1309Z" fill="white"/>
<path d="M85.6777 6.625V14.3008H91.5957V18.4902H85.6777V38.1484C85.6777 39.418 85.9414 40.375 86.4688 41.0195C86.9961 41.6445 87.8945 41.957 89.1641 41.957C89.7891 41.957 90.6484 41.8398 91.7422 41.6055V46C90.3164 46.3906 88.9297 46.5859 87.582 46.5859C85.1602 46.5859 83.334 45.8535 82.1035 44.3887C80.873 42.9238 80.2578 40.8438 80.2578 38.1484V18.4902H74.4863V14.3008H80.2578V6.625H85.6777Z" fill="white"/>
<path fill-rule="evenodd" clip-rule="evenodd" d="M54 59H1V48H54V59Z" fill="white"/>
</svg>
